<svg xmlns="http://www.w3.org/2000/svg" width="77.344" height="12.5" viewBox="0 0 154.688 25">
  <defs>
    <style>
      .cls-1 {
        fill: #fff;
        fill-rule: evenodd;
      }
    </style>
  </defs>
  <path id="Get_a_Quote_copy" data-name="Get a Quote copy" class="cls-1" d="M111.8,421.96h3.418v2.666a10.243,10.243,0,0,1-3.068.507,5.869,5.869,0,0,1-2.907-.7,4.893,4.893,0,0,1-1.965-2.008,6.433,6.433,0,0,1-.7-3.087,5.427,5.427,0,0,1,1.561-4.123,5.712,5.712,0,0,1,4.118-1.49,10.768,10.768,0,0,1,2.638.346,13.07,13.07,0,0,1,2.692,1.014l1.857-3.947a17.244,17.244,0,0,0-7.294-1.68,11.32,11.32,0,0,0-5.209,1.172,8.613,8.613,0,0,0-3.593,3.368,10.03,10.03,0,0,0-1.292,5.18,10.63,10.63,0,0,0,1.251,5.273,8.4,8.4,0,0,0,3.473,3.409,10.776,10.776,0,0,0,5.1,1.171,20.225,20.225,0,0,0,7.457-1.573v-9.36h-5.734Zm18.034,3.893q-3.714,0-4.118-2.373h8.694l1.023-2.154a6.439,6.439,0,0,0-1.75-4.8,6.81,6.81,0,0,0-4.926-1.662,6.513,6.513,0,0,0-7.079,7.08,6.734,6.734,0,0,0,1.952,5.177,7.918,7.918,0,0,0,5.612,1.823,14.309,14.309,0,0,0,5.653-1.12l-1.266-2.72a10.657,10.657,0,0,1-3.8.747h0Zm-1.077-7.973q2.585,0,2.719,2.826h-5.76a3.314,3.314,0,0,1,.928-2.1,2.951,2.951,0,0,1,2.113-.726h0Zm16.5,7.466a1.607,1.607,0,0,1-1.252-.433,2.227,2.227,0,0,1-.39-1.49V418.44H146.2l1.507-3.2H143.62v-3.52h-4.361v3.52h-2.315v3.2h2.315v6.33q0,4.178,4.145,4.176a11.562,11.562,0,0,0,2.558-.293l1.7-3.653-0.08-.08a8.081,8.081,0,0,1-2.315.426h0Zm24.144-.053H169.3a2.328,2.328,0,0,1-1.562-.413,1.9,1.9,0,0,1-.457-1.454v-4.32q0-4.239-6.191-4.24a23.967,23.967,0,0,0-4.065.4l-1.588,3.414,0.108,0.08a20.577,20.577,0,0,1,4.36-.587,4.549,4.549,0,0,1,2.315.44,1.61,1.61,0,0,1,.7,1.48v0.347h-3.095a5.732,5.732,0,0,0-4.119,1.24,4.139,4.139,0,0,0-1.265,3.08,3.985,3.985,0,0,0,1.279,3.106,4.949,4.949,0,0,0,3.459,1.16,5.206,5.206,0,0,0,4.226-1.84,3.346,3.346,0,0,0,3.257,1.76,4.066,4.066,0,0,0,1.211-.16l1.588-3.386Zm-9.1.773a2.014,2.014,0,0,1-1.373-.426,1.421,1.421,0,0,1-.484-1.12q0-1.521,2.18-1.52h2.288a3.408,3.408,0,0,1-.727,2.293,2.412,2.412,0,0,1-1.884.773h0Zm35.8-6.893a10.217,10.217,0,0,0-1.239-5.076,8.593,8.593,0,0,0-3.485-3.429,10.729,10.729,0,0,0-5.182-1.215,10.588,10.588,0,0,0-5.141,1.215A8.523,8.523,0,0,0,177.6,414.1a10.305,10.305,0,0,0-1.225,5.075,11.311,11.311,0,0,0,.915,4.63,8.947,8.947,0,0,0,2.6,3.416,9.078,9.078,0,0,0,3.943,1.808,13.5,13.5,0,0,0,3.661,3.448,16.39,16.39,0,0,0,4.63,1.966l1.669-3.375a15.1,15.1,0,0,1-2.49-.868,9.6,9.6,0,0,1-2.086-1.3,8.8,8.8,0,0,0,5.047-3.456,10.526,10.526,0,0,0,1.844-6.264h0Zm-15.209,0a6.406,6.406,0,0,1,.66-2.953,4.857,4.857,0,0,1,1.871-2.015,5.309,5.309,0,0,1,2.772-.721,5.438,5.438,0,0,1,2.813.721,4.933,4.933,0,0,1,1.9,2.015,6.312,6.312,0,0,1,.673,2.953,7.133,7.133,0,0,1-.673,3.172,5,5,0,0,1-1.9,2.123,5.286,5.286,0,0,1-2.813.749,5.162,5.162,0,0,1-2.772-.749,4.927,4.927,0,0,1-1.871-2.123,7.242,7.242,0,0,1-.66-3.172h0Zm27.025-3.929v8.746a4.62,4.62,0,0,1-2.961,1.28,1.826,1.826,0,0,1-1.319-.44,1.95,1.95,0,0,1-.457-1.453V415.24h-4.361v8.826a5.14,5.14,0,0,0,1.238,3.68,4.536,4.536,0,0,0,3.338,1.2,7.773,7.773,0,0,0,5.087-2.053l0.566,1.68h3.23V415.24h-4.361Zm14.185,13.706a8.119,8.119,0,0,0,3.863-.893,6.449,6.449,0,0,0,2.611-2.493,7.7,7.7,0,0,0,0-7.334,6.367,6.367,0,0,0-2.611-2.48,8.917,8.917,0,0,0-7.725,0,6.361,6.361,0,0,0-2.611,2.48,7.7,7.7,0,0,0,0,7.334,6.443,6.443,0,0,0,2.611,2.493,8.115,8.115,0,0,0,3.862.893h0Zm0-3.6a3.18,3.18,0,0,1-2.4-.946,3.432,3.432,0,0,1-.915-2.494,3.471,3.471,0,0,1,.915-2.52,3.506,3.506,0,0,1,4.791,0,3.475,3.475,0,0,1,.915,2.52,3.436,3.436,0,0,1-.915,2.494,3.182,3.182,0,0,1-2.4.946h0Zm17.227,0a1.609,1.609,0,0,1-1.252-.433,2.227,2.227,0,0,1-.39-1.49V418.44h2.584l1.508-3.2h-4.092v-3.52h-4.36v3.52h-2.315v3.2h2.315v6.33q0,4.178,4.145,4.176a11.554,11.554,0,0,0,2.557-.293l1.7-3.653-0.081-.08a8.075,8.075,0,0,1-2.315.426h0Zm11.817,0.507q-3.715,0-4.119-2.373h8.7l1.022-2.154a6.442,6.442,0,0,0-1.749-4.8,6.813,6.813,0,0,0-4.926-1.662,6.512,6.512,0,0,0-7.079,7.08,6.737,6.737,0,0,0,1.951,5.177,7.919,7.919,0,0,0,5.612,1.823,14.309,14.309,0,0,0,5.653-1.12l-1.265-2.72a10.657,10.657,0,0,1-3.8.747h0Zm-1.077-7.973q2.585,0,2.719,2.826h-5.761a3.32,3.32,0,0,1,.929-2.1,2.948,2.948,0,0,1,2.113-.726h0Z" transform="translate(-102.062 -409.438)"/>
</svg>
